<svg width="120" height="40" viewBox="0 0 120 40" fill="none" xmlns="http://www.w3.org/2000/svg">
  <path d="M10.5 8H26.5C27.5 8 28 8.5 28 9.5V30.5C28 31.5 27.5 32 26.5 32H10.5C9.5 32 9 31.5 9 30.5V9.5C9 8.5 9.5 8 10.5 8Z" fill="#333333"/>
  <path d="M34 11H42V13H38V19H41V21H38V29H34V11Z" fill="#333333"/>
  <path d="M43 11H50.5C54.5 11 56 13 56 16C56 18.5 54.5 20 52.5 20.5V20.6C54.5 21 55.5 22.5 55.5 24.5C55.5 27.5 53.5 29 49.5 29H43V11ZM47 18.5H49C50 18.5 51 18 51 16.5C51 15 50 14.5 49 14.5H47V18.5ZM47 25.5H49C50.5 25.5 51.5 24.5 51.5 23C51.5 21.5 50.5 20.5 48.5 20.5H47V25.5Z" fill="#333333"/>
  <path d="M63 26.5C64 26.5 65 26 65 24.5V11H69V24.5C69 28 66.5 29.5 63 29.5C59.5 29.5 57 28 57 24.5V11H61V24.5C61 26 62 26.5 63 26.5Z" fill="#333333"/>
  <path d="M71 11H75V22.5C75 25.5 76.5 26.5 78.5 26.5C80.5 26.5 82 25.5 82 22.5V11H86V22.5C86 28 83 30 78.5 30C74 30 71 28 71 22.5V11Z" fill="#333333"/>
  <path d="M88 11H92L95 21H95.1L98 11H102L97 29H93L88 11Z" fill="#333333"/>
  <path d="M103 11H116V14H107V18H115V21H107V26H116V29H103V11Z" fill="#333333"/>
  <path d="M118 11H122V29H118V11Z" fill="#333333"/>
</svg> 