<svg width="20" height="20" viewBox="0 0 20 20" fill="none" xmlns="http://www.w3.org/2000/svg">
  <path d="M14.3433 10.7168C14.3508 9.16109 15.1633 7.84234 16.4992 7.01859C15.5508 5.6273 14.0308 4.87105 12.2333 4.75855C10.5333 4.64855 8.73328 5.7523 7.97078 5.7523C7.18328 5.7523 5.64828 4.79605 4.29578 4.79605C2.23828 4.8348 0 6.49105 0 9.8723C0 10.8998 0.189222 11.9623 0.567722 13.0548C1.09272 14.5948 2.95828 18.5748 4.91328 18.5098C5.87578 18.482 6.52828 17.7423 7.82078 17.7423C9.07828 17.7423 9.67828 18.5098 10.7608 18.5098C12.7083 18.4773 14.3958 14.8698 14.8958 13.3273C12.3158 12.0248 12.3433 10.7743 12.3433 10.7168H14.3433Z" fill="white"/>
  <path d="M11.7509 3.54484C12.5884 2.55984 13.0959 1.21484 12.9559 -0.000164032C11.7684 0.0623359 10.3309 0.799836 9.45841 1.78484C8.66341 2.68484 8.05591 4.04984 8.22091 5.24984C9.52341 5.34734 10.8734 4.55984 11.7509 3.54484Z" fill="white"/>
</svg> 