<svg width="20" height="20" viewBox="0 0 20 20" fill="none" xmlns="http://www.w3.org/2000/svg">
  <path d="M1.33398 0.981934C1.11732 1.21527 1 1.54193 1 1.9486V18.0513C1 18.458 1.11732 18.7847 1.33398 19.018L1.40065 19.078L10.8007 9.8646V9.8046V9.7446L1.40065 0.921934L1.33398 0.981934Z" fill="white"/>
  <path d="M14.1004 13.0913L11.4004 10.458V9.8047V9.1513L14.1004 6.518L14.1804 6.5647L17.3804 8.368C18.3004 8.8813 18.3004 9.7313 17.3804 10.2513L14.1804 12.0513L14.1004 13.0913Z" fill="white"/>
  <path d="M14.18 12.0513L11.4 9.80469L1.33398 19.018C1.66732 19.3847 2.20065 19.428 2.80065 19.0613L14.18 12.0513Z" fill="white"/>
  <path d="M14.18 7.558L2.80065 0.548C2.20065 0.1813 1.66732 0.2313 1.33398 0.598L11.4 9.80467L14.18 7.558Z" fill="white"/>
</svg> 